<svg width="16" height="16" viewBox="0 0 16 16" fill="none" xmlns="http://www.w3.org/2000/svg">
<path d="M8.8 14.3504C10.4138 14.1451 11.8889 13.3329 12.9255 12.079C13.962 10.8251 14.4822 9.22363 14.3803 7.59998C14.2784 5.97633 13.5621 4.45239 12.377 3.3379C11.1919 2.22342 9.62684 1.60202 8 1.6C6.37117 1.59879 4.80316 2.21867 3.61547 3.33334C2.42778 4.44801 1.70979 5.97359 1.60779 7.59923C1.5058 9.22487 2.02747 10.8282 3.06651 12.0826C4.10556 13.337 5.58379 14.148 7.2 14.3504V9.6H5.6V8H7.2V6.6768C7.2 5.6072 7.312 5.2192 7.52 4.828C7.72489 4.44095 8.04157 4.12455 8.4288 3.92C8.7344 3.756 9.1144 3.6576 9.7784 3.6152C10.0416 3.5984 10.3824 3.6192 10.8008 3.6792V5.1992H10.4C9.6664 5.1992 9.3632 5.2336 9.1824 5.3304C9.07452 5.38589 8.98668 5.47372 8.9312 5.5816C8.8352 5.7624 8.8 5.9416 8.8 6.676V8H10.8L10.4 9.6H8.8V14.3504ZM8 16C3.5816 16 0 12.4184 0 8C0 3.5816 3.5816 0 8 0C12.4184 0 16 3.5816 16 8C16 12.4184 12.4184 16 8 16Z" fill="white"/>
</svg>
